<?xml version="1.0" encoding="UTF-8"?>
<svg xmlns="http://www.w3.org/2000/svg" xmlns:xlink="http://www.w3.org/1999/xlink" width="14pt" height="15pt" viewBox="0 0 14 15" version="1.1">
<g id="surface1">
<path style=" stroke:none;fill-rule:nonzero;fill:rgb(0%,0%,0%);fill-opacity:1;" d="M 3.183594 12.761719 L 0.234375 12.761719 L 0.234375 4.238281 L 3.183594 4.238281 Z M 1.710938 3.082031 C 0.765625 3.082031 0 2.375 0 1.535156 C 0 0.6875 0.765625 0 1.710938 0 C 2.648438 0 3.414062 0.6875 3.414062 1.535156 C 3.414062 2.375 2.648438 3.082031 1.710938 3.082031 Z M 14.214844 12.761719 L 11.273438 12.761719 L 11.273438 8.613281 C 11.273438 7.625 11.253906 6.355469 9.742188 6.355469 C 8.207031 6.355469 7.972656 7.429688 7.972656 8.539062 L 7.972656 12.761719 L 5.027344 12.761719 L 5.027344 4.238281 L 7.855469 4.238281 L 7.855469 5.402344 L 7.898438 5.402344 C 8.292969 4.730469 9.253906 4.027344 10.683594 4.027344 C 13.671875 4.027344 14.21875 5.789062 14.21875 8.082031 L 14.21875 12.761719 Z M 14.214844 12.761719 "/>
</g>
</svg>
